<?xml version="1.0" encoding="UTF-8" standalone="no"?>
<!-- Created with Inkscape (http://www.inkscape.org/) -->

<svg
   width="210mm"
   height="297mm"
   viewBox="0 0 210 297"
   version="1.1"
   id="svg1"
   xml:space="preserve"
   xmlns="http://www.w3.org/2000/svg"
   xmlns:svg="http://www.w3.org/2000/svg"><defs
     id="defs1" /><g
     id="layer1"
     style="display:inline"><path
       style="fill:#000000;fill-opacity:1;stroke-width:2.78034"
       d="m 88.544084,236.76252 c -1.677962,-2.715 -10.021837,-4.50487 -12.828742,-2.75192 -1.728929,1.07974 -2.302916,0.64809 -1.782834,-1.34071 0.305523,-1.16833 0.850675,-1.4205 2.536117,-1.17314 2.483112,0.36445 5.843927,-0.33505 5.843927,-1.21631 0,-1.05083 -3.637609,-2.31096 -6.671067,-2.31096 -2.488431,0 -3.053023,-0.30117 -3.792493,-2.02298 -1.250875,-2.9126 -1.206868,-2.90526 -3.129992,-0.52298 -1.683673,2.08564 -1.843787,2.1313 -3.770529,1.07471 -2.9583,-1.6223 -3.02282,-2.82065 -0.144689,-2.68728 2.380424,0.11038 2.423911,0.057 2.20482,-2.70819 -0.20366,-2.57031 -0.08658,-2.77731 1.318595,-2.33131 1.137415,0.361 1.934032,-0.008 3.035619,-1.40927 1.301143,-1.65414 1.865652,-1.8392 4.382545,-1.43674 3.223333,0.51544 3.343027,0.3432 1.814917,-2.61185 -1.27545,-2.46644 -0.665778,-3.47039 1.123913,-1.85074 2.619527,2.37063 4.918592,-4.25138 2.584692,-7.44469 -0.834983,-1.14244 -1.937721,-1.42795 -5.515178,-1.42795 -3.085698,0 -4.472156,-0.28499 -4.473576,-0.91954 -0.0011,-0.50575 -0.819252,-0.91954 -1.818047,-0.91954 -1.311984,0 -1.698473,-0.30626 -1.392558,-1.10346 0.268136,-0.69873 -0.01001,-1.10344 -0.758718,-1.10344 -1.745264,0 -1.43664,-2.01927 0.623488,-4.07942 1.926224,-1.92622 4.01035,-2.31608 5.329495,-0.99692 1.003147,1.00315 4.090599,0.11844 3.681469,-1.05506 -0.164373,-0.4714 -0.993718,-0.8326 -1.842997,-0.80262 -0.849277,0.03 -1.397371,-0.18295 -1.217986,-0.47325 0.179387,-0.29026 -0.499141,-0.73487 -1.507839,-0.98804 -2.3884,-0.59945 -2.323824,-1.42596 0.189007,-2.4189 2.022986,-0.79937 2.022986,-0.79937 -0.416178,-0.87764 -3.084969,-0.099 -5.341406,-1.2821 -4.856279,-2.54632 0.923429,-2.40641 -1.811635,-2.86214 -3.225382,-0.53741 -1.32886,2.18512 -1.432367,2.22199 -2.603929,0.92744 -1.663535,-1.8382 -1.55144,-2.26609 0.862089,-3.29081 3.348,-1.42148 9.648337,-5.95204 9.668987,-6.95299 0.02669,-1.29136 -1.059348,-1.1499 -4.449357,0.57956 -3.471175,1.77085 -4.588168,1.40568 -3.605563,-1.17878 0.383612,-1.00896 0.771561,-2.80675 0.862111,-3.9951 0.137571,-1.8053 0.42198,-2.09607 1.729307,-1.76796 4.16088,1.04432 8.341645,-8.57209 6.939981,-15.96304 -0.397035,-2.09354 -0.721881,-3.92678 -0.721881,-4.07386 0,-2.01819 -1.493974,0.78695 -2.205957,4.14195 -1.119696,5.27625 -3.069347,8.62564 -2.5718,4.41821 0.16746,-1.41608 0.48381,-4.19648 0.702998,-6.17866 0.486748,-4.40172 1.389888,-5.59143 4.244582,-5.59143 1.960953,0 2.14827,-0.1924 1.746306,-1.79401 -0.262242,-1.0448 -0.08942,-2.017 0.413836,-2.32804 0.574699,-0.35519 0.329226,-0.73189 -0.73293,-1.12481 -2.019808,-0.74719 -2.055772,-3.24355 -0.125783,-8.73015 2.080439,-5.91429 1.968825,-7.37241 -0.371064,-4.84761 -2.167844,2.33913 -2.312677,1.76741 -1.845514,-1.08397 0.334319,-2.04055 -0.595632,-1.79254 -2.124376,0.41427 -0.935412,1.35036 -2.174128,2.20689 -3.191593,2.20689 -1.272578,0 -4.011962,-0.0139 -4.192089,1.55394 -0.21492,1.87166 2.223339,2.50453 3.954406,2.07004 4.895621,-1.22871 6.756783,2.90515 3.675308,8.16327 -1.229026,2.09718 -2.233154,5.48086 -2.876814,9.69421 -1.104312,7.22874 -1.661377,9.04725 -2.771458,9.04725 -1.137365,0 -0.06787,-7.45831 1.919006,-13.38238 0.935095,-2.7881 1.437449,-5.23166 1.116342,-5.43012 -1.199935,-0.7416 -2.902245,3.33688 -4.592435,11.00275 -1.584871,7.18823 -2.789234,10.14932 -3.740924,9.19764 -0.194207,-0.19435 0.139934,-1.99133 0.742534,-3.99362 1.45164,-4.82342 1.076055,-6.57042 -0.753175,-3.50326 -0.771096,1.29294 -1.652519,2.19597 -1.958715,2.00674 -0.828752,-0.5122 0.76575,-4.54455 1.981523,-5.01109 1.724013,-0.66155 1.21508,-1.6791 -1.706575,-3.41209 -2.758616,-1.63628 -2.758616,-1.63628 -0.919917,-2.32375 3.864293,-1.4448 7.476779,-7.95541 4.414166,-7.95541 -0.404598,0 -0.73563,0.62154 -0.73563,1.38119 0,3.04269 -3.850125,3.88619 -4.927159,1.07949 -0.318184,-0.82918 0.05942,-1.60903 1.120132,-2.31332 1.805822,-1.19902 2.142443,-3.08988 0.550076,-3.08988 -0.979866,0 -2.52874,1.64232 -4.607827,4.88581 -0.822361,1.28293 -0.878941,1.26361 -0.919539,-0.3144 -0.02391,-0.9248 0.79018,-2.41445 1.808827,-3.31033 6.382894,-5.61367 8.321271,-9.35303 4.848344,-9.35303 -0.849655,0 -1.561577,-0.67757 -1.828237,-1.74005 -0.365314,-1.45551 -0.877063,-1.72614 -3.129827,-1.65516 -1.481206,0.0467 -2.809474,-0.24606 -2.951708,-0.65077 -0.159008,-0.4523 2.106001,-0.73562 5.881159,-0.73562 7.696415,0 9.944349,-1.23972 6.284108,-3.46569 -1.646478,-1.00126 -2.55368,-1.18487 -3.10932,-0.62922 -0.910944,0.91095 -3.432817,1.05945 -3.432817,0.20213 0,-0.32032 1.837384,-1.48353 4.083077,-2.58491 2.245694,-1.1014 3.881329,-2.32898 3.634743,-2.72796 -0.76513,-1.238 -2.911271,-0.80432 -5.510926,1.11364 -3.028129,2.23409 -3.678158,2.29142 -3.678158,0.32441 0,-0.83307 0.284465,-1.33887 0.632141,-1.12398 0.347678,0.21492 1.920091,-0.58398 3.494249,-1.77522 3.319928,-2.51231 4.353421,-2.70087 5.039767,-0.91946 0.470264,1.2206 0.533197,1.2211 1.213251,0.0111 1.761234,-3.13716 -1.576886,-5.22114 -4.888055,-3.05158 -2.099737,1.37582 -2.232382,1.02077 -0.714956,-1.9136 0.604034,-1.16808 0.914815,-2.60179 0.690625,-3.186018 -0.25935,-0.675845 0.545286,-1.65116 2.212099,-2.681303 3.906418,-2.41428 3.815829,-5.588009 -0.138906,-4.866316 -6.775705,1.236528 -8.275851,1.335758 -8.275851,0.547448 0,-1.040347 2.303066,-2.228219 3.492876,-1.801548 0.989167,0.354716 5.357301,-2.092872 6.767448,-3.791993 0.73464,-0.885205 0.474348,-0.920126 -1.755754,-0.235773 -3.480072,1.068067 -3.946418,0.368729 -1.607608,-2.410804 2.205834,-2.62147 2.496433,-5.783522 0.773217,-8.413472 -1.111807,-1.696841 -1.071792,-1.810668 1.015972,-2.890302 1.761078,-0.9107 2.268284,-1.756868 2.67373,-4.460581 0.287134,-1.914733 0.892747,-3.336679 1.421112,-3.336679 0.506408,0 1.856785,-0.977019 3.000836,-2.171153 1.144054,-1.194133 3.013707,-2.376205 4.154789,-2.626831 1.828264,-0.401553 2.024459,-0.70684 1.65178,-2.570234 -0.363396,-1.816987 -0.07465,-2.326871 2.051801,-3.623285 3.104974,-1.892974 3.800467,-1.902283 3.210343,-0.04296 -0.267886,0.843997 -0.132177,1.471264 0.318243,1.471264 0.431862,0 0.785204,-0.275866 0.785204,-0.613026 0,-0.654767 1.344528,-0.924404 4.591238,-0.920748 1.535247,0.0017 2.126069,-0.434111 2.475419,-1.826094 0.654964,-2.609537 2.615465,-3.46349 4.661433,-2.030428 2.101463,1.471917 3.934235,1.462085 8.372322,-0.0449 3.75091,-1.273656 4.91106,-1.08873 4.91106,0.782813 0,0.806613 0.43557,1.01154 1.47127,0.692215 0.80919,-0.249479 2.11089,-0.651875 2.89267,-0.894193 1.16209,-0.360198 1.34776,-0.158868 1.01766,1.103447 -0.44961,1.719356 0.46059,2.028263 1.85821,0.630637 0.72744,-0.727431 1.05464,-0.689991 1.60714,0.183919 0.58107,0.919111 0.69556,0.877286 0.70499,-0.25757 0.0222,-2.821936 13.51845,5.799578 15.8476,10.124507 0.98888,1.836263 2.01249,2.64324 3.7713,2.973194 2.87251,0.538891 4.76714,2.223837 4.19042,3.726694 -0.22827,0.595187 -0.0292,1.082163 0.44249,1.082163 0.47177,0 0.65524,0.327691 0.40771,0.728199 -0.24745,0.40048 0.89157,2.004402 2.53131,3.564255 2.78359,2.647967 4.015,6.006394 2.20227,6.006394 -1.51664,0 0.0423,1.287214 2.05112,1.693505 2.31988,0.46921 4.18549,3.475896 5.26888,8.491405 0.37974,1.758036 1.3806,3.931094 2.22416,4.829032 1.81684,1.93392 1.93208,2.641211 0.43028,2.641211 -1.72192,0 -1.31713,1.110411 1.39256,3.820099 2.36535,2.36538 2.51985,2.84084 2.95242,9.08507 0.25106,3.62397 0.73492,9.23734 1.07535,12.47413 0.7007,6.66255 -1.5266,7.57966 -3.93383,8.41112 -1.91922,0.66289 -3.53631,0.2696 -3.81728,1.47869 -0.23233,0.99975 2.56169,3.10735 4.45991,1.8636 1.66481,-1.09081 4.12374,-0.83005 4.12374,0.43732 0,0.34709 -0.64306,0.97523 -1.42906,1.39586 -1.39206,0.745 -1.37833,0.87423 0.5306,4.99138 1.40916,3.0393 1.9223,5.25982 1.82671,7.90475 -0.0731,2.02298 -0.15125,4.83679 -0.1735,6.25287 -0.0222,1.41609 -0.59382,4.9789 -1.26997,7.91733 -1.02328,4.44701 -1.08191,5.92679 -0.34968,8.82754 1.56068,6.18284 -2.43477,14.05935 -5.90044,11.63189 -2.50508,-1.75459 -3.01586,-1.39376 -1.3042,0.92135 2.92711,3.95915 1.4257,11.66944 -2.63243,13.51845 -0.99205,0.452 -1.82904,1.34799 -1.85999,1.99111 -0.2038,4.23279 -1.18765,6.18192 -2.89516,5.7354 -1.53172,-0.40057 -1.8893,0.17099 -0.84828,1.35569 6.01543,6.84625 2.68928,12.54289 -8.5828,14.6996 -6.52654,1.24873 -7.31791,1.80941 -6.15531,4.36107 0.90447,1.98511 0.18878,2.41236 -4.17827,2.49394 -0.96283,0.0167 -2.89316,0.57486 -4.28962,1.23753 -1.39645,0.66266 -2.72481,1.01902 -2.95191,0.79192 -0.67001,-0.66998 1.14789,-2.4271 3.53334,-3.41517 5.82353,-2.4122 1.30612,-3.91578 -7.04694,-2.34553 -2.42757,0.45634 -7.5586,1.37235 -11.40228,2.03555 -8.397741,1.449 -13.020027,2.84837 -14.83556,4.49141 -1.93595,1.752 -1.670317,2.46346 0.919875,2.46346 1.485646,0 2.163715,0.31724 1.965366,0.91952 -0.402677,1.22265 -3.219466,1.59744 -3.887109,0.5172 z m 14.733966,-10.56303 c 2.42757,-0.61107 5.65516,-1.3054 7.17241,-1.54293 4.31748,-0.67595 2.01817,-3.25672 -2.97715,-3.34152 -1.59044,-0.0278 -1.06827,-0.45956 2.60934,-2.16152 4.13948,-1.91571 5.95307,-3.68976 3.77198,-3.68976 -0.54111,0 -0.58596,-0.31696 -0.13012,-0.91954 0.38254,-0.50574 0.73509,-1.685 0.78344,-2.62052 0.13791,-2.67155 -2.07177,-1.68923 -3.82786,1.70162 -2.00351,3.86856 -4.63741,4.44309 -5.29501,1.15501 -0.31972,-1.59847 -0.87295,-2.25911 -1.89183,-2.25911 -1.26033,0 -1.4095,-0.43218 -1.19541,-3.46366 0.24467,-3.46367 0.24467,-3.46367 -3.06199,-4.03836 -5.420521,-0.94212 -5.888786,-0.52043 -5.888786,5.30299 0,4.29237 -0.232158,5.22073 -1.533245,6.13207 -1.464043,1.02544 -1.472357,1.1083 -0.184059,1.83561 1.415276,0.7989 0.246338,1.48144 -5.946867,3.47228 -4.279878,1.37579 -3.281005,2.81679 1.496101,2.15835 6.485224,-0.89391 9.304459,-0.83933 9.654782,0.18684 0.197682,0.57934 -0.389192,0.91954 -1.586489,0.91954 -2.08328,0 -2.396569,0.67378 -0.980848,2.10961 0.959523,0.97312 1.748833,0.89104 9.011501,-0.93709 z m 10.35012,-18.47032 c 0.63613,-1.59052 3.09951,2.48328 1.37856,-2.96474 -0.46305,-1.79129 2.78744,-1.2322 3.86756,-1.02621 1.33132,0.25389 1.65908,0.21451 2.5956,-0.0716 0.73271,-0.22385 1.17711,-1.05183 0.89102,-1.51476 -0.54717,-0.88532 -6.39562,-0.27498 -8.58327,0.8956 -1.69459,0.90684 -2.99081,3.4377 -2.46391,4.81079 0.60514,1.57698 1.26937,2.48388 2.31444,-0.12911 z m -13.790432,-5.91355 c -0.130676,-0.62828 -0.568885,-1.17472 -0.97348,-1.21437 -0.404595,-0.0395 -1.066677,-0.52376 -1.471272,-1.07585 -0.447218,-0.61026 -2.754538,-1.14595 -5.885032,-1.36635 -6.011121,-0.42314 -3.264786,1.66284 3.188937,2.42218 1.753893,0.2063 3.361736,0.82557 3.57293,1.37596 0.530989,1.38372 1.860519,1.26367 1.567917,-0.14152 z m 11.796182,-0.78634 c 1.25779,-0.25162 2.10721,-0.74813 1.88762,-1.10346 -0.58859,-0.95235 -4.03911,-0.72592 -6.56532,0.43081 -2.58666,1.18443 0.15069,1.57804 4.6777,0.67265 z m 27.93482,-3.27426 c 1.69038,-1.30572 -1.76488,-0.29816 -2.08384,-1.11114 -1.19839,-3.05451 -1.77422,-1.34644 -2.88316,-0.0111 -0.57383,0.69144 -0.0651,1.02273 0.15026,1.52271 0.91816,2.13145 0.91078,2.09744 2.94865,0.8875 z m -25.06501,-1.11837 c 2.08372,-0.3203 2.3007,-0.55062 1.65516,-1.75684 -0.4086,-0.76351 -0.74293,-2.18624 -0.74293,-3.16161 0,-3.26751 -2.25414,-3.86213 -9.04743,-4.14748 -11.642863,-0.48903 -8.814403,-2.29211 3.82547,-2.29211 6.33815,0 10.99763,2.12675 13.82723,-0.17529 1.71455,-1.40192 4.90384,-1.40192 2.70128,0.4514 -3.59195,3.02242 -3.97709,7.25269 0.24527,8.0315 2.37099,0.43732 3.44204,-0.079 2.07409,-1.1337 -2.44172,-1.88257 -0.78069,-5.24458 2.73591,-5.53763 5.00597,-0.41719 7.15854,-4.99246 3.83311,-8.14728 -2.09232,-1.98503 -10.29926,-0.44439 -17.76386,3.33465 -4.26387,2.15866 -10.00102,2.25316 -15.67244,0.25829 -5.218034,-1.83552 -7.662186,-1.61398 -10.007514,0.23183 -1.846638,1.98633 -2.514559,1.02854 -2.753974,0.64118 -0.237163,-0.38377 0.776924,-1.41418 1.188136,-1.66833 1.446722,-0.89413 0.724223,-3.08143 -2.345197,-1.41061 -1.567852,0.85345 -2.229748,-0.3702 -2.629199,-2.18896 -0.543501,-2.4745 -0.04421,-3.6961 1.510725,-3.6961 1.388862,0 1.371541,-1.92994 -0.02224,-2.46471 -2.513371,-0.96448 -4.916371,6.54786 -2.560275,8.00401 0.530266,0.32772 0.51047,0.79109 -0.06339,1.48248 -1.208613,1.45628 -0.217423,2.54142 2.321333,2.54142 1.213785,0 2.021501,0.29997 1.794931,0.66659 -0.226598,0.36661 -1.509578,0.49351 -2.318351,0.28201 -1.659473,-0.43396 -9.144037,-1.02502 -0.273147,2.0423 0.609172,1.13827 0.519867,1.42289 -0.446523,1.42289 -0.784889,0 -1.055945,0.39634 -0.773851,1.13149 0.273029,0.71132 -0.514502,0.40787 -2.120685,-0.81723 -2.958881,-2.25683 -5.34497,-2.01483 -4.046989,0.41046 1.198785,2.23996 3.665032,3.57463 9.653162,5.22404 2.988225,0.82309 6.095198,1.96545 6.904388,2.53856 1.430957,1.01343 12.45648,0.95858 19.31763,-0.0962 z m 7.1651,-15.01177 c 2.15395,-0.92558 6.21386,-0.92558 4.7816,0 -0.6069,0.39222 -2.26206,0.69491 -3.67817,0.67267 -2.10377,-0.0331 -2.3056,-0.15597 -1.10343,-0.67267 z m 9.74115,14.37736 c 1.59983,-1.84042 3.1324,-1.04336 3.1324,-1.63665 0,-1.50942 -4.78293,-0.44773 -6.34339,1.92166 -0.97605,1.55911 -4.28698,8.34054 3.21099,-0.28501 z m 10.79885,-0.50811 c 2.01708,-0.91907 1.86895,-2.09933 -0.26357,-2.09933 -1.50086,0 -3.23766,1.71319 -2.49239,2.45849 0.62447,0.62444 0.5861,0.62944 2.75588,-0.35916 z m -2.48051,-2.48604 c 2.3829,-1.23225 2.87018,-2.55583 0.94093,-2.55583 -1.31716,0 -3.91998,2.02951 -3.91998,3.05654 0,0.86816 0.49182,0.78547 2.97905,-0.50071 z m -19.89858,-1.31177 c 0,-0.52957 -0.4729,-1.60542 -1.05091,-2.39081 -1.21292,-1.64813 -2.4594,0.0773 -1.62558,2.25021 0.52042,1.35617 2.67649,1.46944 2.67649,0.14068 z m 19.20343,-4.09956 c -0.16848,-0.50574 -1.13758,-1.10448 -2.9773,-0.45481 -2.13955,0.75555 -5.25967,0.82396 -5.5544,2.44047 -0.71701,3.93256 3.21814,0.64366 5.51215,-0.60139 0.98815,-0.53631 3.49762,-0.28803 3.01955,-1.38427 z m 12.17016,-1.78353 c 0.15159,-1.68913 -3.79292,-5.16025 -4.39809,-4.55508 -0.6442,0.64421 1.66899,1.46317 1.46849,3.74742 -0.73924,8.42209 2.8923,1.22329 2.9296,0.80766 z m -5.62648,-2.62715 c 0,-1.26125 -2.15912,-2.41128 -3.64285,-1.94037 -2.7355,0.86821 -1.5275,2.40449 1.98769,2.52783 0.91034,0.032 1.65516,-0.23244 1.65516,-0.58746 z m -30.57633,-1.48426 c 0.59327,-0.95997 -0.97782,-1.38675 -7.04955,-1.91499 -3.63274,-0.31606 -7.05348,-1.20416 -10.418467,-2.70488 -4.819551,-2.14939 -6.357829,-2.33618 -5.312672,-0.64506 1.846396,2.98756 21.395799,7.50569 22.780689,5.26493 z m 9.95239,-4.21438 c 0.92958,-0.87347 0.77338,-1.01213 -1.14025,-1.01213 -2.12946,0 -3.98292,1.10196 -3.98292,2.36804 0,0.86308 3.84438,-0.1543 5.12317,-1.35591 z m -13.95074,0.48748 c 0,-0.64299 -1.80358,-1.25135 -7.5402,-2.54329 -2.83842,-0.63926 -2.58027,0.87249 0.36781,2.15384 2.74837,1.19455 7.17239,1.43477 7.17239,0.38945 z m 5.88506,-0.0514 c 0,-1.37975 -2.30004,-1.67032 -3.52503,-0.44533 -1.11497,1.11497 -1.02911,1.20406 1.16049,1.20406 1.3005,0 2.36454,-0.34143 2.36454,-0.75873 z m -34.369879,-6.23251 c 0.01001,-3.16733 -5.114445,-3.55529 -7.357373,-1.24627 -2.414106,2.48524 3.455499,2.4798 4.753231,5.36458 3.125486,6.94776 2.596802,-1.79186 2.604142,-4.11831 z m 34.028809,3.26975 c 0.47511,-0.7688 -1.31735,-1.34241 -9.08234,-2.90646 -5.05827,-1.01888 -7.846841,-2.03916 -10.666661,-3.90271 -2.099879,-1.38772 -5.872576,-3.55599 -8.383806,-4.81835 -7.83222,-3.93718 -11.969615,-8.7031 -11.997118,-13.81965 -0.0086,-1.62344 -0.171964,-1.84706 -0.724365,-0.99227 -1.228526,1.901 -0.850705,7.05121 0.653561,8.9089 1.233597,1.52343 1.262696,1.80808 0.259795,2.54142 -0.913745,0.66815 -0.476236,0.91535 2.291319,1.2947 3.92754,0.53832 8.300799,2.58299 10.334617,4.83186 1.902864,2.10408 0.398339,2.03062 -4.426828,-0.21603 -5.578316,-2.59742 -8.111508,-2.99123 -10.245813,-1.59277 -2.638506,1.72881 -2.230035,2.29903 1.437924,2.00729 2.779686,-0.22104 4.381556,0.33411 11.127943,3.85678 8.051305,4.20401 13.672152,5.67578 10.003187,2.61924 -2.156515,-1.79654 -0.829237,-1.90358 3.667185,-0.29574 7.88527,2.81968 14.86372,3.92011 15.7514,2.48384 z m 26.37708,0.17099 c 0.48943,-0.79193 2.99089,-4.90316 -0.4497,-4.35448 -0.29217,0.0466 -1.11483,1.54175 -1.14933,2.75556 -0.0595,2.08876 0.7785,2.92658 1.59903,1.59892 z m -74.984659,-2.59008 c 0.976116,-0.71374 1.109394,-1.14322 0.476192,-1.53458 -0.912269,-0.5638 -3.021742,0.74874 -3.021742,1.88017 0,0.92916 0.985096,0.79543 2.54555,-0.34559 z m 55.569329,-1.21056 c 0.38175,-1.63604 -6.25188,-3.01608 -6.76958,-2.04606 -2.1204,3.97306 1.83464,4.25483 2.43289,3.40937 0.66152,-0.93488 3.52038,2.13511 3.93142,0.37352 z m 9.34925,1.08138 c 1.83102,-0.76504 2.44222,-1.35939 1.92736,-1.87428 -0.9144,-0.9144 -4.37895,0.47613 -4.96018,1.99081 -0.48517,1.26427 -0.25023,1.25526 3.03282,-0.1165 z m -19.91273,-1.92495 c 3.6121,-0.90953 3.16194,-2.04855 -0.8388,-2.12237 -2.2069,-0.0406 -2.2069,-0.0406 -0.21325,-1.12284 1.79023,-0.97173 2.36103,-0.94256 5.59379,0.28579 4.17026,1.58457 6.22078,0.29814 4.53765,-2.84681 -0.75803,-1.41639 1.18873,-2.91864 3.78226,-2.91864 1.74119,0 -0.31774,-1.35397 -2.84181,-1.8688 -2.76674,-0.56435 -2.76674,-0.56435 0.13262,-1.42501 4.17593,-1.23964 1.37343,-4.70964 -3.41929,-5.13503 -0.90961,-0.0806 -0.0823,-2.03935 1.45387,-3.6428 2.01135,-2.09941 0.23883,-1.69037 -5.49692,-2.0946 -11.25601,-0.79329 -20.788021,-6.63989 -21.901213,-13.43346 -0.851173,-5.19434 -2.791989,-7.21167 -3.093099,-3.82627 -0.945955,10.63443 12.214892,23.2592 25.001652,24.57892 2.41319,0.24911 3.96448,0.72833 3.70683,1.14525 -0.66848,1.0816 -7.35528,-0.0278 -12.37429,-2.05128 -4.96272,-2.00171 -7.269592,-1.35091 -4.17496,1.17783 1.74806,1.42843 8.1192,3.63274 10.49973,3.63274 0.71188,0 1.52899,0.37968 1.81578,0.84372 1.15921,1.87564 -6.27961,0.0403 -11.22461,-2.76952 -6.271398,-3.5634 -6.737272,-3.75355 -5.487732,-2.23982 0.875223,1.06028 0.835575,1.2231 -0.297941,1.2231 -2.299646,0 0.824648,2.71806 4.711733,4.09908 6.77535,2.40719 7.45014,2.71031 7.45014,3.34647 0,0.86708 -1.96139,0.80847 -5.46122,-0.1632 -4.35232,-1.20839 -10.778938,-7.75095 -14.264482,-14.52182 -2.578431,-5.0087 -2.938846,-6.79512 -4.346198,-13.95683 -0.272751,-1.38739 -1.289132,-2.8992 -2.050528,-2.60704 -1.456544,0.55893 -1.445503,-1.88999 0.02502,-5.40796 1.757703,-4.2067 2.802749,-2.06821 3.291254,6.73482 0.433567,7.81309 1.55838,10.70639 4.162196,10.70639 1.495461,0 1.197102,-2.29008 -0.922517,-7.08086 -2.374187,-5.36616 -2.503778,-9.04589 -0.368506,-10.46364 2.166857,-1.43874 1.922771,-2.42868 -1.078243,-4.37302 -1.981881,-1.28405 -2.49566,-2.03176 -2.148229,-3.12644 0.689802,-2.17336 -0.92627,-1.72837 -2.121649,0.58423 -0.575141,1.11264 -1.764542,4.39019 -2.643118,7.28341 -0.878584,2.89325 -2.061168,5.87255 -2.627965,6.62068 -2.318364,3.0601 -1.025106,-3.60791 2.23301,-11.5133 4.512737,-10.94959 4.401385,-12.17435 -0.735631,-8.09196 -4.621557,3.67278 -5.683202,2.6111 -1.471263,-1.47127 2.887134,-2.79832 3.230837,-3.712 1.196215,-3.17993 -2.24358,0.58671 -8.578432,8.13703 -8.071941,9.45691 0.527592,1.37488 5.076679,0.008 6.360785,-1.27465 1.521568,-1.52162 1.05627,1.97282 -1.459553,10.96118 -2.741545,9.79483 -1.552289,14.51743 2.295153,9.1142 2.105323,-2.95664 2.721493,-2.8663 3.311684,0.48551 0.966863,5.491 2.806085,9.84977 5.702308,13.51375 2.62945,3.32651 2.763685,3.67856 1.223238,3.20826 -4.002826,-1.22201 -7.129234,-6.26975 -7.778265,-12.55834 -0.360593,-3.49381 -0.550029,-3.84683 -1.726418,-3.21725 -6.20049,3.3184 2.654428,15.43097 16.433371,22.47907 5.388802,2.75646 7.803282,4.36046 7.308462,4.85528 -1.08762,1.08761 -2.81179,0.3315 -11.270083,-4.94219 -8.208812,-5.11813 -12.720507,-6.54478 -8.00771,-2.53208 3.519297,2.99648 9.462021,6.38955 16.919503,9.66037 7.27473,3.19069 6.52101,3.05195 10.76984,1.9821 z m 16.78493,-0.58187 c 0.7917,-1.28099 -0.75656,-0.88974 -2.40371,-0.50569 -2.0571,0.47963 -3.74068,3.72815 -2.27984,3.72815 0.872,0 4.45075,-2.84581 4.68355,-3.22246 z m 11.02382,-0.85913 c 2.99021,-1.76426 3.1959,-2.13421 1.18655,-2.13421 -1.52819,0 -6.15879,3.61574 -4.68079,3.65489 0.48261,0.0139 2.05503,-0.67151 3.49424,-1.52068 z m -11.72805,-2.85991 c 0,-1.3096 -3.69499,-3.53835 -4.74003,-2.4933 -0.4073,0.40729 -2.69751,4.46365 1.04832,3.19681 1.45894,-1.26179 3.69177,0.61901 3.69177,-0.70351 z m 8.06916,0.0278 c 0.99666,-1.61268 -2.37772,-2.25377 -4.13879,-0.78634 -1.72348,1.4361 -2.61509,5.68841 0.99175,1.46057 1.56194,-1.22064 2.90951,-0.28993 3.14704,-0.67423 z m -2.52605,-4.11412 c 1.40924,-1.69801 -0.19657,-3.00335 -1.7651,-1.43482 -0.66181,0.6618 -5.38702,0.82481 -4.90693,2.36645 0.32306,1.03736 5.64005,0.31185 6.67203,-0.93163 z m 6.66872,-5.87657 c -2.06963,0.40192 -2.83213,2.87494 -3.41959,3.36237 -1.9114,1.58632 -1.12685,2.09448 1.32269,0.8567 1.85479,-0.93725 4.71677,-4.72783 2.0969,-4.21907 z m 13.19525,-1.15252 c -2.91725,-2.44558 -5.97583,-2.21404 -5.59795,-0.37502 0.14541,0.70804 1.46136,1.41248 2.08952,1.30855 0.62819,-0.10398 2.08458,0.45145 2.84993,1.23933 2.62813,2.7055 3.47884,2.80431 2.7718,0.40638 -0.0966,-0.32758 -0.71249,-1.4049 -2.1133,-2.57924 z m -16.3588,0.66028 c 0.4855,-0.48553 0.90163,-1.13776 0.88276,-1.44817 -0.20576,-3.38492 -3.53239,1.93886 -4.14081,2.99899 -1.24422,2.16798 2.05425,-0.34702 3.25805,-1.55088 z m -56.507754,-2.24462 c -0.01501,-3.19734 -1.115177,-5.00395 -1.777109,-2.91839 -0.563286,1.77478 0.190648,5.3092 1.13249,5.3092 0.360735,0 0.650814,-1.07588 0.644619,-2.39081 z m 54.796904,-0.5152 c 1.17519,-2.27254 1.47761,-4.45032 0.61804,-4.45032 -1.03857,0 -3.90949,3.2454 -3.90949,4.41943 0,2.86614 1.81648,2.88318 3.29145,0.0309 z m 12.85885,-4.12299 c -1.8325,-2.20801 -5.85145,-0.81601 -5.85145,2.0267 0,1.53608 0.0495,1.54862 2.46983,0.62838 1.4014,-0.53282 2.0587,-0.41825 2.8065,0.4892 0.87781,1.06515 1.00084,1.01983 1.2169,-0.44819 0.13235,-0.89822 -0.15653,-2.11147 -0.64178,-2.69609 z m -15.68929,-0.50753 c 1.64821,-3.18729 0.82806,-4.17095 -1.4385,-1.72528 -2.18871,2.36168 -2.89455,6.53521 -0.81308,4.80776 0.63358,-0.52582 1.64677,-1.91293 2.25158,-3.08248 z m -38.648343,1.57049 c 0.597418,-1.65341 2.09111,-1.25751 3.999036,1.79069 1.899417,1.40429 0.349256,-1.69113 0.349256,-3.13514 0,-1.03223 -3.273613,-1.01869 -5.83026,-1.90231 -2.704434,-0.9347 -1.357854,0.7722 -0.763981,1.90586 1.451738,2.77125 3.471104,8.95286 3.425635,4.79223 z M 128.8875,147.9294 c 2.19038,-2.28625 2.50022,-3.6671 0.95583,-4.25976 -0.56152,-0.21548 -1.2241,-1.40766 -1.47244,-2.64936 -0.4515,-2.25761 -0.4515,-2.25761 -1.96106,-0.33851 -2.36876,3.01136 -6.65238,3.82372 -12.21828,2.31711 -6.72839,-1.82129 -8.3602,-4.77634 -2.63754,-4.77634 2.51215,0 2.58652,0.0651 1.24395,1.08944 -3.44712,2.63001 6.53191,3.96688 10.70483,1.42248 3.78669,-2.30887 4.14563,-5.38604 3.79767,-10.41999 -0.11789,-1.70407 -1.58112,-2.38049 -1.59141,-0.73562 -0.003,0.50575 -0.74797,1.29 -1.65517,1.74277 -0.90719,0.45275 -2.80805,1.44586 -4.22414,2.2069 -2.48754,1.33681 -7.18778,1.67037 -12.87352,0.91359 -2.3624,-0.31443 -3.91756,-3.20298 -4.00447,-7.43796 -0.062,-3.01942 1.17286,-2.44812 2.83622,1.31221 3.57071,8.07218 14.82602,6.85895 17.29221,-1.86394 0.51995,-1.83909 0.51995,-1.83909 -0.81353,-0.26997 -4.88928,5.75316 -15.51103,3.2957 -14.78409,-3.42049 0.27748,-2.56239 0.27748,-2.56239 1.21407,-0.35683 1.90119,4.47654 8.3451,6.35755 10.39802,3.88394 0.6992,-0.84247 -2.62725,-1.33234 -4.75424,-2.03432 -1.43763,-0.47446 -2.99056,-1.58098 -3.45093,-2.4589 -0.82646,-1.57612 0.39627,-2.22146 1.9276,-0.86221 2.33704,2.07433 6.51544,2.99183 4.25211,0.88319 -1.7115,-1.59449 -4.48128,-3.86722 -2.10407,-4.3044 5.21314,-0.95877 2.01567,-5.77368 -3.83158,-5.76984 -9.90897,0.006 -14.69802,9.54323 -10.43059,20.77099 1.72515,4.53882 1.6758,4.23777 0.69464,4.23777 -1.10185,0 -3.421623,-5.61442 -4.02732,-9.74712 -0.553704,-3.77778 -1.302866,-4.35698 -2.570923,-1.98761 -5.483941,10.24683 15.169393,24.65669 28.619563,19.96792 2.28605,-0.79692 3.48529,0.50808 1.56024,1.69782 -0.40459,0.24995 -0.73562,1.09718 -0.73562,1.88251 0,2.10024 2.32826,1.7817 4.64397,-0.63539 z m -25.97726,-27.8906 c 0,-3.4787 9.02593,-8.01129 10.66663,-5.35654 0.24995,0.40459 -0.16209,0.73562 -0.91601,0.73562 -0.75383,0 -2.84234,0.92783 -4.64108,2.06187 -5.0479,3.18246 -5.10954,3.21332 -5.10954,2.55905 z m 38.97719,24.64634 c 0,-4.18886 -2.70216,-5.12482 -3.2435,-4.38468 -0.60891,0.83251 3.09467,2.17768 1.31454,3.45867 -1.99894,1.43844 -0.71829,1.60702 -1.36228,3.49317 -1.23712,4.1027 1.96152,1.47012 2.56688,0.53342 0.3922,-0.60689 0.71817,-2.00215 0.72437,-3.10055 z m 9.84729,-0.68257 c -1.79743,-1.98616 -2.47973,-1.68741 -2.47973,1.08581 0,3.2578 0.79409,3.88911 2.39899,1.90717 1.23528,-1.52552 1.24028,-1.71169 0.0806,-2.99298 z m 6.69194,-2.29814 c -1.35134,-2.51838 -3.24429,2.02691 -2.61329,5.44589 0.73706,3.99364 2.32286,2.46989 2.1178,-1.57279 -0.0636,-1.25394 2.11273,-0.48872 1.65994,-1.61849 z m -3.28661,0.28629 c 0.30605,-0.17999 3.37203,-5.56804 0.51216,-3.24716 -1.62648,1.31994 -4.70246,0.60202 -5.36593,1.72514 -0.56944,0.96393 3.18717,4.25717 3.77803,3.7164 0.56522,-0.51729 -0.122,-1.48999 1.07574,-2.19438 z m -3.41497,-4.98952 c -1.35535,-0.18694 -1.01341,-1.54822 -0.34949,-1.76954 0.55017,-0.1835 0.71074,-1.04197 0.40407,-1.84112 -0.41497,-1.08141 -1.34306,-1.36917 -2.23577,-0.62827 -1.47984,1.22816 -1.31203,4.48402 0.26292,5.40128 2.06309,1.20167 5.97283,-0.60313 3.9554,-0.88138 z m 1.86263,-7.93562 c -1.44279,-0.48095 -2.60456,-1.03848 -4.30487,-0.52458 -1.94369,0.58746 1.63261,2.13417 2.41562,2.23821 1.60098,0.21272 5.40378,-0.54206 2.85691,-1.39106 z m -4.35734,-4.99094 c -1.24822,-0.99054 -1.62932,1.74389 -0.9215,2.88916 0.25579,0.41386 2.06912,0.54988 2.74881,0.623 2.33398,0.25108 1.96033,-0.50642 0.17819,-1.92066 z m 6.32815,0.0282 c -0.5517,-4.15883 -0.87942,-5.00778 -1.93314,-5.00778 -0.79345,0 -0.906,3.16103 -0.23244,6.52874 0.84876,4.2438 2.7529,2.90648 2.16558,-1.52096 z m 3.07932,-0.0524 c 0.0353,-0.95481 -1.10366,-1.78228 -1.3767,-2.01293 -1.41784,-1.19774 -0.75522,5.26231 -0.23281,6.66608 0.631,1.69553 1.52707,-2.42349 1.58105,-3.88343 z M 102.61546,112.1001 c 3.01524,-2.79992 10.16173,-4.43444 5.63515,-4.83734 -6.41604,-0.57108 -13.036849,5.45341 -12.002743,11.02405 1.210169,6.51908 1.913549,-2.05072 3.505754,-3.52923 z m 3.21166,-6.97498 c 1.24039,-0.35575 3.40875,-0.45962 4.81861,-0.23077 1.51295,0.2455 2.56333,0.11094 2.56333,-0.32858 0,-1.19841 -6.51481,-2.4965 -9.94664,-1.98185 -1.88471,0.28262 -4.172927,0.10454 -5.684987,-0.44211 -2.289414,-0.82784 -2.752007,-0.75147 -4.851802,0.80099 -2.977354,2.20122 -2.953304,2.98926 0.06478,2.12368 2.998651,-0.86001 -5.536633,5.98337 -5.907196,7.08333 -0.170435,0.50574 8.666154,-5.56568 9.268125,-5.12216 0.964166,0.71046 -2.201666,4.28127 -4.207704,5.5903 -1.894087,1.23596 -1.918443,3.49364 -1.213757,5.82695 3.388063,11.21828 2.365262,-1.15225 3.354704,-4.17959 1.282896,-3.92521 10.502197,-8.78442 11.742567,-9.14016 z m -22.313842,-0.40796 c 15.672821,-4.934583 10.534564,-6.027929 -1.473082,-2.83775 -3.82403,1.01596 -7.566516,5.61012 -7.145728,9.16054 0.341061,2.87772 3.255624,-4.63419 8.61881,-6.32279 z m 41.275432,12.62213 c 1.99667,-7.45952 -2.59116,-4.45646 -6.05016,-11.14456 -3.17377,-1.45623 -9.05173,1.78388 -5.16579,2.14625 7.48411,0.69791 7.75504,20.31116 11.21595,8.99831 z"
       id="path2" /></g></svg>
